<svg xmlns="http://www.w3.org/2000/svg" width="76" height="72" fill="none"><path fill="#83B3D3" d="M30.119 65h16.064V41.2H30.119V65Zm2.911-20.9h10.14v18H33.03v-18Z"/><path fill="#83B3D3" d="m73.392 39.3 2.108-2.1-9.94-9.9V0H51.604v13.6L37.95 0 .5 37.2l2.108 2.1 7.832-7.8v37.6H6.424V72H70.58v-2.9h-5.12V31.5l7.932 7.8ZM62.548 69.1H13.351V28.5L37.95 4.1l24.598 24.4v40.6Zm0-44.7-7.931-7.9V2.9h7.931v21.5Z"/><path fill="#83B3D3" d="M30.32 27.1c0 4.3 3.513 7.7 7.73 7.7 4.318 0 7.832-3.5 7.832-7.7 0-4.3-3.514-7.7-7.832-7.7-4.217 0-7.73 3.4-7.73 7.7Zm7.83-5c2.711 0 5.02 2.2 5.02 4.9s-2.208 4.9-5.02 4.9c-2.71 0-5.02-2.2-5.02-4.9s2.21-4.9 5.02-4.9ZM20.48 41.2h-3.012v3.9h3.012v-3.9Zm5.924 0h-3.012v3.9h3.012v-3.9Zm-5.924 6h-3.012v3.9h3.012v-3.9Zm5.924 0h-3.012v3.9h3.012v-3.9Zm26.104-6h-3.012v3.9h3.012v-3.9Zm5.924 0H55.42v3.9h3.012v-3.9Zm-5.924 6h-3.012v3.9h3.012v-3.9Zm5.924 0H55.42v3.9h3.012v-3.9Z"/></svg>